#!OML:ASF F:\VICON\USERDATA\INSTALL\rory3\rory3.ASF
:FULLY-SPECIFIED
:DEGREES
32
root 1.21867 17.7191 -24.5634 -1.43008 1.97789 2.24889
lowerback 11.0731 -1.67096 -3.92176
upperback -0.307105 -2.60335 2.04356
thorax -6.27252 -1.11814 4.79368
lowerneck -14.9082 -2.16583 -3.124
upperneck 23.0135 -2.08753 -0.651771
head 9.79041 -1.32073 0.0305839
rclavicle 2.29596e-014 1.03368e-014
rhumerus -36.6312 -26.1181 -70.2588
rradius 21.6774
rwrist 8.7721
rhand -19.7492 19.6662
rfingers 7.12502
rthumb 6.58198 -10.2115
lclavicle 2.29596e-014 1.03368e-014
lhumerus -22.6155 -4.00137 80.0162
lradius 35.4193
lwrist 8.76214
lhand -31.2216 21.5634
lfingers 7.12502
lthumb -4.49717 51.4957
rfemur -30.1578 10.3876 14.1772
rtibia 17.9405
rfoot -9.62507 -14.6474
rtoes 4.06339
lfemur 9.92524 -1.51623 -26.838
ltibia 15.5388
lfoot -18.3075 -3.26329
ltoes 3.42176
33
root 1.20504 17.6932 -24.3923 -1.55543 1.82129 2.19816
lowerback 11.3924 -1.58819 -3.77667
upperback -0.263129 -2.48725 1.98912
thorax -6.42695 -1.06226 4.64952
lowerneck -15.2322 -2.13717 -2.91287
upperneck 22.9505 -2.06368 -0.75199
head 9.82468 -1.30196 -0.0397592
rclavicle 2.35063e-014 -1.27222e-014
rhumerus -36.8955 -26.9348 -69.7776
rradius 21.266
rwrist 9.42205
rhand -19.8682 19.7784
rfingers 7.12502
rthumb 6.46701 -10.1028
lclavicle 2.35063e-014 -1.27222e-014
lhumerus -22.5138 -4.36502 79.9363
lradius 35.9112
lwrist 9.04399
lhand -31.3469 23.3722
lfingers 7.12502
lthumb -4.61813 53.3019
rfemur -30.0191 9.90596 14.5222
rtibia 17.7868
rfoot -9.64261 -13.3494
rtoes 3.1137
lfemur 10.5843 -1.57949 -26.8392
ltibia 15.7828
lfoot -18.4636 -2.92545
ltoes 2.58461
34
root 1.18991 17.6713 -24.2128 -1.6318 1.7441 2.08997
lowerback 11.3934 -1.49993 -3.59324
upperback -0.0279258 -2.34584 1.94684
thorax -6.20098 -1.01035 4.47025
lowerneck -15.9324 -2.2436 -2.74968
upperneck 22.8076 -2.23816 -0.718142
head 9.90573 -1.36263 -0.0850725
rclavicle -3.79679e-014 2.46493e-014
rhumerus -36.8725 -28.1632 -69.3087
rradius 20.8154
rwrist 10.1436
rhand -19.6238 20.368
rfingers 7.12502
rthumb 6.70298 -9.50593
lclavicle -3.79679e-014 2.46493e-014
lhumerus -21.9659 -4.90257 79.8819
lradius 36.1699
lwrist 9.4246
lhand -31.6758 23.2457
lfingers 7.12502
lthumb -4.93573 53.1682
rfemur -29.9953 9.47878 14.8913
rtibia 18.0768
rfoot -9.19412 -12.2255
rtoes 2.71641
lfemur 11.2566 -1.64759 -26.7281
ltibia 16.0171
lfoot -18.6443 -2.65985
ltoes 1.34048
35
root 1.16992 17.6499 -24.0337 -1.68724 1.51733 1.98196
lowerback 11.6398 -1.62175 -3.80642
upperback -0.241715 -2.5286 2.21665
thorax -6.52814 -1.07484 4.92714
lowerneck -15.3691 -2.07637 -3.01144
upperneck 22.5273 -1.92649 -0.846834
head 9.69963 -1.25436 -0.0371927
rclavicle -3.8763e-014 3.49861e-014
rhumerus -37.2679 -27.7233 -68.8417
rradius 20.5987
rwrist 10.5464
rhand -19.2939 20.9588
rfingers 7.12502
rthumb 7.02149 -8.90474
lclavicle -3.8763e-014 3.49861e-014
lhumerus -22.6422 -4.07796 79.8764
lradius 36.5399
lwrist 9.46171
lhand -31.8553 22.5487
lfingers 7.12502
lthumb -5.10905 52.4671
rfemur -30.1452 9.01571 15.3734
rtibia 18.7481
rfoot -8.44572 -10.8303
rtoes 3.14435
lfemur 11.8967 -1.75728 -26.6339
ltibia 16.2073
lfoot -18.7756 -2.32924
ltoes 0.0521139
36
root 1.1504 17.627 -23.8563 -1.63904 1.46044 2.05565
lowerback 11.8756 -1.87872 -4.32267
upperback -0.699917 -2.93099 2.56831
thorax -7.06459 -1.2193 5.69484
lowerneck -14.0002 -1.81314 -3.4221
upperneck 21.9548 -1.45628 -1.11886
head 9.2411 -1.09431 0.0135691
rclavicle 4.47762e-014 0
rhumerus -37.8674 -26.6663 -68.2374
rradius 20.3173
rwrist 10.694
rhand -18.9514 21.7905
rfingers 7.12502
rthumb 7.35207 -8.06178
lclavicle 4.47762e-014 0
lhumerus -24.0308 -2.87222 79.9951
lradius 37.0668
lwrist 9.36176
lhand -32.0595 22.3566
lfingers 7.12502
lthumb -5.30616 52.2701
rfemur -30.3697 8.61859 15.5434
rtibia 19.5898
rfoot -7.92227 -9.82847
rtoes 4.60702
lfemur 12.3014 -1.93914 -26.6923
ltibia 16.5233
lfoot -18.7582 -2.32791
ltoes -0.581696
37
root 1.12721 17.6077 -23.6713 -1.57921 1.66653 2.18847
lowerback 11.7339 -1.84598 -4.33762
upperback -0.503749 -2.89351 2.41066
thorax -6.78598 -1.21804 5.5113
lowerneck -14.7097 -1.93484 -3.14652
upperneck 21.8881 -1.64857 -1.17411
head 9.34818 -1.16695 -0.0813203
rclavicle -5.86415e-015 -9.54166e-015
rhumerus -37.7886 -27.5283 -68.1823
rradius 20.1392
rwrist 10.6849
rhand -19.0483 21.6979
rfingers 7.12502
rthumb 7.25852 -8.15757
lclavicle -5.86415e-015 -9.54166e-015
lhumerus -23.5888 -3.47168 79.9701
lradius 37.2772
lwrist 9.77184
lhand -32.1697 23.0765
lfingers 7.12502
lthumb -5.41254 52.9873
rfemur -30.4892 8.41914 15.4989
rtibia 20.5299
rfoot -7.60299 -9.40798
rtoes 5.28128
lfemur 12.6387 -2.306 -26.7761
ltibia 17.0304
lfoot -18.6938 -2.46583
ltoes -1.53285
38
root 1.09761 17.5894 -23.4816 -1.60759 1.73879 2.1784
lowerback 11.6411 -1.44317 -3.87166
upperback 0.216579 -2.31681 1.88779
thorax -6.07541 -0.996529 4.56451
lowerneck -17.5905 -2.32546 -2.213
upperneck 22.6133 -2.35588 -1.07341
head 10.1373 -1.40998 -0.334345
rclavicle -3.46879e-014 -3.97569e-015
rhumerus -37.1926 -30.1737 -68.525
rradius 20.1402
rwrist 10.7731
rhand -19.3581 20.8235
rfingers 7.12502
rthumb 6.95946 -9.04208
lclavicle -3.46879e-014 -3.97569e-015
lhumerus -21.6407 -5.27649 79.6868
lradius 37.1801
lwrist 10.1223
lhand -31.9612 22.5534
lfingers 7.12502
lthumb -5.21126 52.4693
rfemur -30.5185 8.29421 15.7477
rtibia 21.6644
rfoot -7.21997 -9.1098
rtoes 4.58979
lfemur 13.0329 -2.41244 -26.6089
ltibia 17.6425
lfoot -18.5935 -2.80656
ltoes -2.51314
39
root 1.06718 17.5748 -23.2854 -1.65943 1.75937 2.17246
lowerback 11.7213 -1.59378 -4.18148
upperback 0.0871242 -2.55019 2.0957
thorax -6.21114 -1.09213 5.00723
lowerneck -17.2756 -2.16663 -2.55643
upperneck 22.4724 -2.04561 -1.07601
head 10.0313 -1.29649 -0.230307
rclavicle -2.94201e-014 7.95139e-016
rhumerus -37.4725 -30.3547 -67.8375
rradius 19.7599
rwrist 11.8595
rhand -19.7116 19.9587
rfingers 7.12502
rthumb 6.61825 -9.91788
lclavicle -2.94201e-014 7.95139e-016
lhumerus -22.2499 -4.56963 79.8266
lradius 37.3999
lwrist 9.85411
lhand -31.6414 21.2795
lfingers 7.12502
lthumb -4.9025 51.2028
rfemur -30.551 8.26776 15.9973
rtibia 22.9726
rfoot -6.96908 -8.95026
rtoes 3.83183
lfemur 13.4311 -2.56693 -26.481
ltibia 18.2776
lfoot -18.3671 -3.17738
ltoes -3.34659
40
root 1.04075 17.5647 -23.0839 -1.6029 1.96559 2.16432
lowerback 11.7385 -1.70724 -4.1986
upperback -0.0428553 -2.70555 2.09599
thorax -6.34063 -1.16088 5.04755
lowerneck -17.1712 -2.11936 -2.52399
upperneck 22.3617 -1.99357 -1.07526
head 9.97111 -1.26886 -0.226149
rclavicle -4.79568e-014 1.98785e-014
rhumerus -38.1661 -31.5836 -66.6839
rradius 19.2204
rwrist 13.5934
rhand -19.5056 20.8814
rfingers 7.12502
rthumb 6.81707 -8.98883
lclavicle -4.79568e-014 1.98785e-014
lhumerus -22.6883 -4.53133 79.8529
lradius 37.6056
lwrist 9.95315
lhand -31.0265 18.1034
lfingers 7.12502
lthumb -4.30871 48.0396
rfemur -30.6316 7.98046 16.2693
rtibia 24.2506
rfoot -6.17979 -8.92253
rtoes 2.08731
lfemur 13.6737 -2.9281 -26.3747
ltibia 18.938
lfoot -17.9503 -3.54115
ltoes -4.17259
41
root 1.01393 17.5652 -22.8793 -1.5699 2.22781 2.17814
lowerback 11.7044 -1.87211 -4.35446
upperback -0.367852 -2.94421 2.17217
thorax -6.62914 -1.25498 5.26633
lowerneck -16.2963 -1.94354 -2.58342
upperneck 22.1837 -1.7574 -1.10346
head 9.74237 -1.16642 -0.183303
rclavicle -5.66536e-015 -2.70347e-014
rhumerus -39.1749 -32.1948 -65.5313
rradius 18.8489
rwrist 14.3914
rhand -19.1651 21.8441
rfingers 7.12502
rthumb 7.14576 -8.01525
lclavicle -5.66536e-015 -2.70347e-014
lhumerus -23.608 -4.30502 79.9899
lradius 37.6853
lwrist 10.0388
lhand -32.0365 21.3916
lfingers 7.12502
lthumb -5.28399 51.3057
rfemur -30.6631 7.4636 16.5579
rtibia 25.4253
rfoot -4.86439 -8.75379
rtoes 0.250538
lfemur 13.8334 -3.33276 -26.2895
ltibia 19.7424
lfoot -17.439 -4.02391
ltoes -5.56992
42
root 0.986657 17.5859 -22.6778 -1.60635 2.30374 1.99929
lowerback 11.7294 -1.96691 -4.31965
upperback -0.578988 -3.06038 2.3002
thorax -6.85006 -1.29848 5.41244
lowerneck -15.7552 -1.89646 -2.60475
upperneck 22.1076 -1.66875 -1.25902
head 9.6126 -1.14415 -0.215977
rclavicle 2.59166e-014 -3.97569e-015
rhumerus -39.7328 -32.2372 -65.0031
rradius 18.6961
rwrist 14.229
rhand -19.2622 21.9186
rfingers 7.12502
rthumb 7.05204 -7.94393
lclavicle 2.59166e-014 -3.97569e-015
lhumerus -24.2632 -4.10307 80.1458
lradius 37.6218
lwrist 10.1345
lhand -32.7972 23.7721
lfingers 7.12502
lthumb -6.01845 53.6666
rfemur -30.6299 7.29023 17.0063
rtibia 26.5021
rfoot -3.53484 -8.78281
rtoes -0.103249
lfemur 13.9798 -3.68319 -26.0238
ltibia 20.7113
lfoot -16.7471 -4.49728
ltoes -6.87972
43
root 0.960421 17.6062 -22.4773 -1.66413 2.42374 1.6563
lowerback 11.6234 -1.8474 -3.71149
upperback -0.181145 -2.82009 2.13841
thorax -6.43023 -1.2265 4.83327
lowerneck -17.3467 -2.20873 -2.14307
upperneck 22.5392 -2.15172 -1.34741
head 10.0598 -1.34292 -0.410512
rclavicle 3.05134e-014 -8.74653e-015
rhumerus -39.4845 -33.711 -65.0641
rradius 18.6624
rwrist 14.0139
rhand -19.5753 21.678
rfingers 7.12502
rthumb 6.74983 -8.19438
lclavicle 3.05134e-014 -8.74653e-015
lhumerus -23.3349 -4.73137 80.0845
lradius 37.1292
lwrist 10.0872
lhand -32.5419 22.4188
lfingers 7.12502
lthumb -5.7719 52.3202
rfemur -30.522 7.04835 17.6324
rtibia 27.3743
rfoot -2.13469 -8.52229
rtoes 2.0692
lfemur 14.0375 -4.09378 -25.5921
ltibia 21.9185
lfoot -16.0679 -4.8717
ltoes -9.29349
